<svg preserveAspectRatio="none" width="100%" height="100%" overflow="visible" style="display: block;" viewBox="0 0 107 12" fill="none" xmlns="http://www.w3.org/2000/svg">
<g id="Group">
<path id="Vector" d="M0 2.1971H3.46752V11.6857H5.08656V2.1971H8.5557V0.796578H0V2.1971Z" fill="var(--fill-0, #05050D)"/>
<path id="Vector_2" d="M13.6504 3.3087C13.1167 3.3087 12.6513 3.48009 12.2575 3.82124C11.9256 4.10853 11.6587 4.52967 11.4521 5.06833V3.43602H9.83304V11.6841H11.4521V8.00811C11.4521 7.35845 11.5237 6.80183 11.6652 6.33662C11.8068 5.87305 12.0265 5.51557 12.321 5.26746C12.6171 5.01935 12.9963 4.8953 13.4633 4.8953C13.6113 4.8953 13.7741 4.91162 13.9531 4.94264C14.132 4.97365 14.298 5.00956 14.451 5.04874L14.5112 3.43275C14.3745 3.39358 14.2378 3.36093 14.0979 3.33808C13.9579 3.31523 13.8099 3.30381 13.6504 3.30381V3.3087Z" fill="var(--fill-0, #05050D)"/>
<path id="Vector_3" d="M22.5885 7.41231C22.5885 8.02769 22.4876 8.55982 22.2858 9.01034C22.0841 9.46085 21.8058 9.80854 21.4511 10.0534C21.0964 10.2982 20.6847 10.4207 20.2193 10.4207C19.6677 10.4207 19.2414 10.2607 18.9371 9.94239C18.6328 9.62409 18.4815 9.15398 18.4815 8.53207V3.43766H16.8624V8.67735C16.8624 9.41189 16.9943 10.0126 17.2579 10.4762C17.5215 10.9414 17.8876 11.2841 18.3578 11.5061C18.8265 11.7281 19.3618 11.8391 19.9639 11.8391C20.5659 11.8391 21.1452 11.6694 21.6171 11.3298C22.019 11.0409 22.3395 10.6296 22.5885 10.1121V11.6841H24.2157V3.43602H22.5885V7.41068V7.41231Z" fill="var(--fill-0, #05050D)"/>
<path id="Vector_4" d="M32.6526 7.30132L30.8887 6.67778C30.0475 6.43783 29.6277 6.07382 29.6277 5.58413C29.6277 5.3099 29.7676 5.06506 30.0491 4.84959C30.3306 4.6325 30.7179 4.52477 31.2125 4.52477C31.7414 4.52477 32.1449 4.61127 32.4264 4.78593C32.7079 4.96059 32.8674 5.2087 32.9081 5.53353H34.4669C34.4441 4.87898 34.1529 4.33216 33.5931 3.89633C33.0334 3.46051 32.2393 3.24178 31.2109 3.24178C30.1825 3.24178 29.4194 3.44908 28.8157 3.86205C28.2136 4.27502 27.9126 4.82021 27.9126 5.49925C27.9126 6.02975 28.0916 6.48353 28.4496 6.86223C28.8076 7.24092 29.3218 7.54453 29.9922 7.77306L31.6714 8.34599C32.1254 8.47167 32.4557 8.61532 32.6591 8.77692C32.8641 8.94015 32.9666 9.16051 32.9666 9.43963C32.9666 9.66163 32.8885 9.86076 32.7323 10.0387C32.5761 10.215 32.3662 10.3554 32.1026 10.4582C31.839 10.561 31.5445 10.6116 31.2207 10.6116C30.6121 10.6116 30.1321 10.4974 29.7757 10.2705C29.421 10.042 29.2323 9.69264 29.2095 9.21928H27.6848C27.6962 9.7612 27.8459 10.2329 28.1323 10.6345C28.4187 11.036 28.8352 11.3494 29.3803 11.5747C29.9254 11.7999 30.5958 11.9126 31.3915 11.9126C32.0668 11.9126 32.6575 11.7934 33.1603 11.5584C33.6631 11.3217 34.0536 11.0148 34.3318 10.6394C34.6101 10.264 34.75 9.86404 34.75 9.4429C34.75 8.91893 34.5678 8.48473 34.2049 8.14358C33.8421 7.80243 33.3246 7.52331 32.6542 7.30621L32.6526 7.30132Z" fill="var(--fill-0, #05050D)"/>
<path id="Vector_5" d="M41.7095 10.5365C41.4996 10.5855 41.2831 10.6084 41.0618 10.6084C40.341 10.6084 39.9798 10.2215 39.9798 9.44617V4.56557H42.4075V3.46213H39.9798V1.22262H38.3689V3.46213H37.1159V4.56557H38.3689V9.49839C38.3689 10.0403 38.4779 10.4892 38.6976 10.845C38.9156 11.2009 39.2134 11.467 39.5876 11.6449C39.9619 11.8212 40.3833 11.9093 40.8487 11.9093C41.1676 11.9093 41.4719 11.8685 41.7648 11.7853C42.0577 11.702 42.3538 11.5992 42.6549 11.4735L42.4254 10.3194C42.1586 10.4158 41.9194 10.4892 41.7095 10.5382V10.5365Z" fill="var(--fill-0, #05050D)"/>
<path id="Vector_6" d="M51.8631 6.15544C51.7573 5.60209 51.5669 5.1075 51.2887 4.67168C51.0104 4.23585 50.6443 3.88817 50.1887 3.62863C49.7347 3.3691 49.1896 3.24014 48.5517 3.24014C47.8423 3.24014 47.2028 3.4148 46.6349 3.76085C46.067 4.10853 45.6179 4.60639 45.2876 5.25278C44.9589 5.89917 44.793 6.67614 44.793 7.58207C44.793 8.4374 44.9589 9.18826 45.2909 9.83792C45.6228 10.4876 46.0736 10.9952 46.6414 11.3592C47.2093 11.7232 47.8456 11.906 48.5501 11.906C49.1571 11.906 49.7022 11.7967 50.1822 11.5763C50.6622 11.3576 51.056 11.0475 51.3619 10.6492C51.6694 10.2509 51.8647 9.78242 51.9493 9.24702H50.2961C50.2229 9.69101 50.0309 10.0256 49.7217 10.2476C49.4125 10.4696 49.022 10.5806 48.5501 10.5806C48.0782 10.5806 47.6682 10.4631 47.3525 10.2264C47.0368 9.98972 46.7993 9.66653 46.6414 9.25682C46.4836 8.85037 46.4055 8.3868 46.4039 7.86283H51.9168C51.9851 7.27683 51.9672 6.70552 51.8614 6.1538L51.8631 6.15544ZM46.6528 5.86978C46.8172 5.46824 47.0596 5.1483 47.3818 4.90835C47.7024 4.66841 48.1026 4.54926 48.5794 4.54926C48.9602 4.54926 49.2742 4.62761 49.5215 4.78431C49.7689 4.94101 49.9609 5.1483 50.0959 5.40784C50.2326 5.66738 50.3254 5.9514 50.3726 6.25827C50.4067 6.48027 50.4198 6.70226 50.4198 6.92426H46.4169C46.4413 6.54719 46.5194 6.19461 46.6528 5.86815V5.86978Z" fill="var(--fill-0, #05050D)"/>
<path id="Vector_7" d="M60.6352 4.58843C60.4106 4.2081 60.1259 3.90449 59.7825 3.68087C59.3334 3.38705 58.8079 3.24014 58.2058 3.24014C57.5468 3.24014 56.948 3.4148 56.4078 3.76574C55.8675 4.11669 55.4347 4.61291 55.1077 5.25767C54.7806 5.90243 54.6179 6.66308 54.6179 7.53963C54.6179 8.41618 54.7838 9.19153 55.1158 9.84282C55.4477 10.4957 55.8952 11.0018 56.4582 11.3641C57.0212 11.7265 57.6363 11.9077 58.3067 11.9077C58.8404 11.9077 59.3269 11.764 59.763 11.4768C60.1568 11.2172 60.4757 10.8385 60.7247 10.3554L60.9151 11.6857H62.2607V1.26622e-05H60.6336V4.58843H60.6352ZM59.532 10.1595C59.2114 10.3456 58.8778 10.437 58.5312 10.437C58.1114 10.437 57.729 10.3211 57.3857 10.086C57.0424 9.85261 56.769 9.51798 56.5672 9.08216C56.3655 8.64633 56.2646 8.13216 56.2646 7.53963C56.2646 6.9471 56.3655 6.44762 56.5672 6.02322C56.769 5.59882 57.0407 5.27073 57.3857 5.04057C57.7307 4.81042 58.1147 4.69452 58.541 4.69452C58.9039 4.69452 59.2456 4.78267 59.5629 4.95896C59.8818 5.13524 60.1389 5.39642 60.339 5.74084C60.5376 6.08525 60.6368 6.50638 60.6368 7.00097V8.12073C60.6368 8.59899 60.5327 9.01197 60.326 9.35965C60.1177 9.70733 59.8541 9.9734 59.5336 10.1595H59.532Z" fill="var(--fill-0, #05050D)"/>
<path id="Vector_8" d="M76.7475 4.58843C76.5229 4.2081 76.2382 3.90449 75.8949 3.68087C75.4458 3.38705 74.9202 3.24014 74.3181 3.24014C73.6591 3.24014 73.0603 3.4148 72.5201 3.76574C71.9799 4.11669 71.547 4.61291 71.22 5.25767C70.8929 5.90243 70.7302 6.66308 70.7302 7.53963C70.7302 8.41618 70.8962 9.19153 71.2281 9.84282C71.56 10.4957 72.0075 11.0018 72.5705 11.3641C73.1335 11.7265 73.7486 11.9077 74.419 11.9077C74.9527 11.9077 75.4392 11.764 75.8753 11.4768C76.2691 11.2172 76.588 10.8385 76.837 10.3554L77.0274 11.6857H78.373V1.26622e-05H76.7459V4.58843H76.7475ZM75.6443 10.1595C75.3237 10.3456 74.9901 10.437 74.6436 10.437C74.2237 10.437 73.8414 10.3211 73.498 10.086C73.1547 9.85261 72.8813 9.51798 72.6795 9.08216C72.4778 8.64633 72.3769 8.13216 72.3769 7.53963C72.3769 6.9471 72.4778 6.44762 72.6795 6.02322C72.8813 5.59882 73.1531 5.27073 73.498 5.04057C73.843 4.81042 74.227 4.69452 74.6533 4.69452C75.0162 4.69452 75.3579 4.78267 75.6752 4.95896C75.9941 5.13524 76.2512 5.39642 76.4513 5.74084C76.6499 6.08525 76.7491 6.50638 76.7491 7.00097V8.12073C76.7491 8.59899 76.645 9.01197 76.4383 9.35965C76.2301 9.70733 75.9665 9.9734 75.6459 10.1595H75.6443Z" fill="var(--fill-0, #05050D)"/>
<path id="Vector_9" d="M87.5015 3.56987C86.9955 3.35114 86.4113 3.24014 85.7458 3.24014C85.0347 3.24014 84.4148 3.32665 83.8843 3.50131C83.3538 3.67596 82.9405 3.95019 82.6444 4.32562C82.3482 4.70105 82.2018 5.19238 82.2018 5.79633H83.9917C83.9917 5.49435 84.0666 5.24298 84.2179 5.04384C84.3676 4.8447 84.5759 4.69452 84.8395 4.59495C85.1031 4.49538 85.4057 4.44479 85.7474 4.44479C86.3495 4.44479 86.7905 4.59822 87.0687 4.90183C87.3469 5.20707 87.4869 5.69513 87.4869 6.36763V7.35192C87.1305 7.24255 86.7693 7.14788 86.4048 7.07769C85.9899 6.99771 85.5636 6.95853 85.1275 6.95853C84.4912 6.95853 83.9282 7.04341 83.4401 7.2148C82.9519 7.38619 82.5695 7.64574 82.2946 7.99668C82.0196 8.34763 81.8812 8.79324 81.8812 9.33516C81.8812 9.77915 81.9935 10.1987 82.2181 10.592C82.4426 10.9854 82.7811 11.3037 83.2367 11.5453C83.6907 11.7869 84.2618 11.9093 84.9501 11.9093C85.5684 11.9093 86.0973 11.7624 86.535 11.4686C86.9727 11.1748 87.3063 10.7879 87.5357 10.3064C87.539 10.3015 87.5389 10.2966 87.5422 10.2917L87.6935 11.6873H89.1075V6.41334C89.1075 5.67228 88.9676 5.06832 88.6861 4.60148C88.4046 4.13464 88.0108 3.79022 87.5064 3.5715L87.5015 3.56987ZM86.4455 10.357C86.1168 10.5545 85.7344 10.6524 85.3032 10.6524C84.7125 10.6524 84.2813 10.5235 84.008 10.2639C83.7346 10.0044 83.5996 9.6959 83.5996 9.3368C83.5996 8.84711 83.772 8.49943 84.1186 8.29376C84.4652 8.08809 84.8964 7.98525 85.4139 7.98525C85.7604 7.98525 86.1331 8.02116 86.535 8.09298C86.8799 8.15501 87.1924 8.23663 87.4853 8.33457V8.72958C87.4853 9.02666 87.3941 9.32211 87.2119 9.61919C87.0296 9.91627 86.7742 10.1627 86.4455 10.3586V10.357Z" fill="var(--fill-0, #05050D)"/>
<path id="Vector_10" d="M96.5259 10.5365C96.3159 10.5855 96.0995 10.6084 95.8782 10.6084C95.1574 10.6084 94.7962 10.2215 94.7962 9.44617V4.56557H97.2239V3.46213H94.7962V1.22262H93.1852V3.46213H91.9323V4.56557H93.1852V9.49839C93.1852 10.0403 93.2943 10.4892 93.5139 10.845C93.732 11.2009 94.0298 11.467 94.404 11.6449C94.7783 11.8212 95.1997 11.9093 95.6651 11.9093C95.984 11.9093 96.2883 11.8685 96.5812 11.7853C96.8741 11.702 97.1702 11.5992 97.4712 11.4735L97.2418 10.3194C96.9749 10.4158 96.7358 10.4892 96.5259 10.5382V10.5365Z" fill="var(--fill-0, #05050D)"/>
<path id="Vector_11" d="M106.559 4.59986C106.278 4.13302 105.884 3.7886 105.379 3.56987C104.873 3.35114 104.289 3.24014 103.624 3.24014C102.913 3.24014 102.293 3.32665 101.762 3.50131C101.232 3.67596 100.818 3.95019 100.522 4.32562C100.226 4.70105 100.08 5.19238 100.08 5.79633H101.869C101.869 5.49435 101.944 5.24298 102.096 5.04384C102.245 4.8447 102.454 4.69452 102.717 4.59495C102.981 4.49538 103.284 4.44479 103.625 4.44479C104.227 4.44479 104.668 4.59822 104.946 4.90183C105.225 5.20707 105.365 5.69513 105.365 6.36763V7.35192C105.008 7.24255 104.647 7.14788 104.283 7.07769C103.868 6.99771 103.441 6.95853 103.005 6.95853C102.369 6.95853 101.806 7.04341 101.318 7.2148C100.83 7.38619 100.447 7.64574 100.172 7.99668C99.8974 8.34763 99.759 8.79324 99.759 9.33516C99.759 9.77915 99.8713 10.1987 100.096 10.592C100.32 10.9854 100.659 11.3037 101.114 11.5453C101.568 11.7869 102.14 11.9093 102.828 11.9093C103.446 11.9093 103.975 11.7624 104.413 11.4686C104.85 11.1748 105.184 10.7879 105.413 10.3064C105.417 10.3015 105.417 10.2966 105.42 10.2917L105.571 11.6873H106.985V6.41334C106.985 5.67228 106.845 5.06832 106.564 4.60148L106.559 4.59986ZM104.322 10.357C103.993 10.5545 103.611 10.6524 103.179 10.6524C102.589 10.6524 102.158 10.5235 101.884 10.2639C101.611 10.0044 101.476 9.6959 101.476 9.3368C101.476 8.84711 101.648 8.49943 101.995 8.29376C102.341 8.08809 102.773 7.98525 103.29 7.98525C103.637 7.98525 104.009 8.02116 104.411 8.09298C104.756 8.15501 105.069 8.23663 105.361 8.33457V8.72958C105.361 9.02666 105.27 9.32211 105.088 9.61919C104.906 9.91627 104.65 10.1627 104.322 10.3586V10.357Z" fill="var(--fill-0, #05050D)"/>
</g>
</svg>
