<svg preserveAspectRatio="none" width="100%" height="100%" overflow="visible" style="display: block;" viewBox="0 0 107 29" fill="none" xmlns="http://www.w3.org/2000/svg">
<g id="Group">
<path id="Vector" d="M14.5893 12.9099L8.77375 10.7193C7.6396 10.2982 6.80323 9.84932 6.26464 9.37106C5.72604 8.89442 5.45593 8.24803 5.45593 7.43351C5.45593 6.46556 5.879 5.6641 6.72676 5.0324C7.57289 4.4007 8.74446 4.08565 10.2431 4.08565C11.867 4.08565 13.0939 4.41538 13.927 5.07483C14.7601 5.73428 15.2743 6.62715 15.4696 7.74855H19.8776C19.6531 5.33437 18.7305 3.43926 17.1065 2.06323C15.4826 0.687198 13.1948 0 10.2415 0C7.28813 0 4.79367 0.677403 3.09327 2.03222C1.39286 3.38703 0.54185 5.14503 0.54185 7.30783C0.54185 9.20294 1.1016 10.6883 2.2211 11.7624C3.3406 12.8364 4.96452 13.7799 7.09124 14.5944L12.2559 16.5956C13.5153 17.0315 14.4396 17.5326 15.027 18.1006C15.6144 18.6687 15.9089 19.4375 15.9089 20.4071C15.9089 21.1237 15.6746 21.7554 15.206 22.3022C14.7374 22.849 14.0865 23.2783 13.2534 23.5868C12.4203 23.8953 11.4651 24.0504 10.3879 24.0504C9.31072 24.0504 8.29861 23.879 7.39715 23.5346C6.49407 23.1902 5.76998 22.6646 5.22487 21.9545C4.67814 21.2461 4.4064 20.3369 4.4064 19.2269H0C0.0553241 21.2346 0.566258 22.9012 1.5328 24.2283C2.49935 25.5554 3.75878 26.5445 5.31111 27.1975C6.86507 27.8504 8.57198 28.1768 10.4335 28.1768C12.6594 28.1768 14.5437 27.8471 16.0912 27.1877C17.637 26.5282 18.8134 25.6043 19.6189 24.4176C20.4227 23.231 20.8263 21.8517 20.8263 20.2798C20.8263 18.4826 20.2844 16.9907 19.1991 15.8056C18.1138 14.6189 16.5777 13.6542 14.5909 12.9099H14.5893Z" fill="var(--fill-0, #05050D)"/>
<path id="Vector_2" d="M42.1325 13.9937C41.8803 12.6112 41.4003 11.3723 40.6941 10.277C39.9863 9.18172 39.0604 8.3117 37.9116 7.66531C36.7645 7.02055 35.3846 6.69734 33.7753 6.69734C32.0261 6.69734 30.4413 7.12502 29.0207 7.98198C27.6002 8.83894 26.4693 10.0664 25.6297 11.6677C24.7901 13.2674 24.3703 15.1919 24.3703 17.4379C24.3703 19.684 24.7933 21.4468 25.6411 23.0612C26.4872 24.6755 27.6214 25.9324 29.0419 26.8302C30.4624 27.728 32.0408 28.1785 33.7753 28.1785C35.3147 28.1785 36.6864 27.901 37.8905 27.346C39.0946 26.791 40.0807 26.0157 40.8503 25.0183C41.62 24.021 42.1097 22.8637 42.3197 21.5432H37.7636C37.5813 22.5405 37.1371 23.2881 36.4309 23.7859C35.7247 24.2838 34.8395 24.5335 33.7753 24.5335C32.7112 24.5335 31.7528 24.2593 31.0254 23.7125C30.2981 23.1657 29.7513 22.4213 29.3885 21.4795C29.0289 20.5507 28.8482 19.4832 28.8434 18.2785H42.2155C42.4108 16.8046 42.3831 15.3763 42.1309 13.9937H42.1325ZM29.4112 13.331C29.7888 12.4039 30.3518 11.6677 31.1019 11.1193C31.8504 10.5724 32.7714 10.2982 33.8616 10.2982C34.7435 10.2982 35.4709 10.481 36.0453 10.845C36.6196 11.2107 37.0639 11.6906 37.3779 12.288C37.692 12.8854 37.9067 13.5416 38.0174 14.2565C38.0955 14.7626 38.1346 15.2669 38.1378 15.773H28.8678C28.928 14.8915 29.107 14.0754 29.4112 13.3294V13.331Z" fill="var(--fill-0, #05050D)"/>
<path id="Vector_3" d="M61.4341 7.81384C60.3081 7.06951 58.9185 6.69734 57.2669 6.69734C55.6153 6.69734 54.2127 7.13643 53.0151 8.01298C52.0811 8.69692 51.3163 9.64366 50.7159 10.845L50.2342 7.26539H46.3079V27.6088H50.8005V18.3634C50.8005 16.7066 51.0234 15.3094 51.4725 14.1733C51.92 13.0356 52.5432 12.1803 53.3405 11.604C54.1378 11.0278 55.0621 10.7406 56.1116 10.7406C57.3987 10.7406 58.432 11.1584 59.2081 11.9942C59.9843 12.8299 60.3732 14.0623 60.3732 15.6897V27.6088H64.8658V15.6897C64.8658 13.8795 64.5746 12.2994 63.9953 10.9511C63.4144 9.60284 62.5601 8.55817 61.4341 7.81384Z" fill="var(--fill-0, #05050D)"/>
<path id="Vector_4" d="M80.1695 16.7001L75.5727 15.0156C73.7258 14.4818 72.8016 13.6755 72.8016 12.5932C72.8016 11.9762 73.1189 11.4245 73.7567 10.9397C74.393 10.4549 75.2782 10.2133 76.4123 10.2133C77.6441 10.2133 78.5748 10.4206 79.2045 10.8352C79.8343 11.2498 80.1906 11.8212 80.2752 12.5508H84.5368C84.4945 10.8663 83.7737 9.469 82.3743 8.36066C80.9749 7.25233 78.9865 6.69734 76.4123 6.69734C73.8381 6.69734 71.8497 7.21642 70.325 8.2562C68.7987 9.29598 68.0372 10.6638 68.0372 12.3631C68.0372 13.6689 68.47 14.7919 69.339 15.7322C70.2062 16.6724 71.4527 17.4232 73.075 17.9847L77.3788 19.4799C78.3861 19.7754 79.1183 20.1051 79.5723 20.4691C80.0263 20.8347 80.2541 21.3326 80.2541 21.9643C80.2541 22.4556 80.0816 22.9012 79.7399 23.3012C79.3965 23.7011 78.9247 24.0177 78.3226 24.2495C77.7205 24.4813 77.042 24.5972 76.287 24.5972C74.9023 24.5972 73.8023 24.3409 72.992 23.8284C72.18 23.3158 71.7455 22.5193 71.6902 21.4387H67.5133C67.5263 22.8278 67.9022 24.0259 68.636 25.0298C69.3699 26.0336 70.4275 26.809 71.8058 27.3574C73.184 27.9042 74.847 28.1785 76.7914 28.1785C78.4853 28.1785 79.9612 27.883 81.2206 27.2938C82.48 26.7045 83.4629 25.9357 84.1707 24.9873C84.8769 24.039 85.2316 23.0318 85.2316 21.9659C85.2316 20.6748 84.7906 19.6072 83.9087 18.765C83.0268 17.9227 81.782 17.2355 80.1727 16.7017L80.1695 16.7001Z" fill="var(--fill-0, #05050D)"/>
<path id="Vector_5" d="M105.843 10.1089C105.129 8.9434 104.133 8.08318 102.852 7.52982C101.572 6.97484 100.085 6.69734 98.3922 6.69734C96.5307 6.69734 94.9247 6.9177 93.5742 7.36006C92.2236 7.80241 91.1806 8.49778 90.4467 9.44451C89.7112 10.3929 89.3451 11.6318 89.3451 13.1613H94.2787C94.2787 12.4741 94.4496 11.8946 94.7929 11.4245C95.1363 10.9544 95.6146 10.6002 96.2313 10.3602C96.8464 10.1219 97.5673 10.0028 98.3939 10.0028C99.8209 10.0028 100.849 10.3602 101.479 11.0768C102.109 11.7934 102.424 12.923 102.424 14.4671V16.723C101.57 16.4732 100.713 16.2708 99.8534 16.119C98.8527 15.9444 97.8065 15.8562 96.7146 15.8562C95.0777 15.8562 93.6458 16.07 92.4221 16.4977C91.1969 16.9254 90.2466 17.575 89.5664 18.445C88.8879 19.3151 88.5478 20.4038 88.5478 21.7097C88.5478 22.8474 88.8342 23.9067 89.4086 24.8894C89.983 25.872 90.8389 26.6653 91.9795 27.2693C93.1202 27.8732 94.5505 28.1752 96.272 28.1752C97.839 28.1752 99.1586 27.8063 100.229 27.0701C101.259 26.3601 102.047 25.428 102.598 24.2773L102.991 27.6072H106.915V14.614C106.915 12.7744 106.559 11.2727 105.845 10.1072L105.843 10.1089ZM100.05 24.0177C99.2953 24.4878 98.3987 24.7229 97.3639 24.7229C95.9645 24.7229 94.9426 24.4274 94.2983 23.8382C93.6539 23.2489 93.3333 22.5405 93.3333 21.7113C93.3333 20.603 93.7353 19.8129 94.5407 19.3428C95.3445 18.8727 96.3566 18.6377 97.5738 18.6377C98.3987 18.6377 99.2839 18.7144 100.229 18.8694C101.012 18.9968 101.741 19.1714 102.423 19.3853V20.1736C102.423 20.8625 102.216 21.5562 101.804 22.2581C101.391 22.96 100.807 23.546 100.052 24.0161L100.05 24.0177Z" fill="var(--fill-0, #05050D)"/>
</g>
</svg>
